<mxfile host="app.diagrams.net" modified="2022-12-22T09:33:54.363Z" agent="5.0 (Windows NT 10.0; Win64; x64) AppleWebKit/537.36 (KHTML, like Gecko) Chrome/108.0.0.0 Safari/537.36" etag="RoXy4T0X7saNQM-fRfPR" version="20.7.4" type="github">
  <diagram name="Page-1" id="74e2e168-ea6b-b213-b513-2b3c1d86103e">
    <mxGraphModel dx="853" dy="737" grid="1" gridSize="10" guides="1" tooltips="1" connect="1" arrows="1" fold="1" page="1" pageScale="1" pageWidth="1100" pageHeight="850" background="none" math="0" shadow="0">
      <root>
        <mxCell id="0" />
        <mxCell id="1" parent="0" />
        <mxCell id="XcMZtLr8KsLbTlHt70lN-4" value="" style="rounded=0;whiteSpace=wrap;html=1;fontFamily=Times New Roman;fontSize=16;" vertex="1" parent="1">
          <mxGeometry x="80" y="100" width="880" height="970" as="geometry" />
        </mxCell>
        <mxCell id="XcMZtLr8KsLbTlHt70lN-5" value="" style="rounded=0;whiteSpace=wrap;html=1;fontFamily=Times New Roman;fontSize=16;" vertex="1" parent="1">
          <mxGeometry x="80" y="40" width="880" height="60" as="geometry" />
        </mxCell>
        <mxCell id="XcMZtLr8KsLbTlHt70lN-6" value="" style="endArrow=none;html=1;rounded=0;fontFamily=Times New Roman;fontSize=16;entryX=0.5;entryY=0;entryDx=0;entryDy=0;" edge="1" parent="1" source="XcMZtLr8KsLbTlHt70lN-4" target="XcMZtLr8KsLbTlHt70lN-5">
          <mxGeometry width="50" height="50" relative="1" as="geometry">
            <mxPoint x="510" y="110" as="sourcePoint" />
            <mxPoint x="560" y="60" as="targetPoint" />
            <Array as="points">
              <mxPoint x="520" y="960" />
            </Array>
          </mxGeometry>
        </mxCell>
        <mxCell id="XcMZtLr8KsLbTlHt70lN-7" value="Pelanggan" style="rounded=0;whiteSpace=wrap;html=1;fontFamily=Times New Roman;fontSize=16;" vertex="1" parent="1">
          <mxGeometry x="220" y="50" width="150" height="40" as="geometry" />
        </mxCell>
        <mxCell id="XcMZtLr8KsLbTlHt70lN-8" value="Pemilik" style="rounded=0;whiteSpace=wrap;html=1;fontFamily=Times New Roman;fontSize=16;" vertex="1" parent="1">
          <mxGeometry x="670" y="50" width="150" height="40" as="geometry" />
        </mxCell>
        <mxCell id="XcMZtLr8KsLbTlHt70lN-9" value="Mulai" style="rounded=1;whiteSpace=wrap;html=1;fontFamily=Times New Roman;fontSize=16;" vertex="1" parent="1">
          <mxGeometry x="235" y="120" width="120" height="50" as="geometry" />
        </mxCell>
        <mxCell id="XcMZtLr8KsLbTlHt70lN-10" value="" style="endArrow=classic;html=1;rounded=0;fontFamily=Times New Roman;fontSize=16;exitX=0.5;exitY=1;exitDx=0;exitDy=0;entryX=0.5;entryY=0;entryDx=0;entryDy=0;" edge="1" parent="1" source="XcMZtLr8KsLbTlHt70lN-9" target="XcMZtLr8KsLbTlHt70lN-14">
          <mxGeometry width="50" height="50" relative="1" as="geometry">
            <mxPoint x="510" y="290" as="sourcePoint" />
            <mxPoint x="560" y="240" as="targetPoint" />
          </mxGeometry>
        </mxCell>
        <mxCell id="XcMZtLr8KsLbTlHt70lN-11" value="" style="rounded=0;whiteSpace=wrap;html=1;fontFamily=Times New Roman;fontSize=16;" vertex="1" parent="1">
          <mxGeometry x="202.5" y="200" width="185" height="110" as="geometry" />
        </mxCell>
        <mxCell id="XcMZtLr8KsLbTlHt70lN-14" value="Pemesanan Catering dengan menu yang diinginkan dan tanggalnya" style="rounded=0;whiteSpace=wrap;html=1;fontFamily=Times New Roman;fontSize=16;" vertex="1" parent="1">
          <mxGeometry x="230" y="200" width="130" height="110" as="geometry" />
        </mxCell>
        <mxCell id="XcMZtLr8KsLbTlHt70lN-15" value="Menerima pesanan" style="rhombus;whiteSpace=wrap;html=1;fontFamily=Times New Roman;fontSize=16;" vertex="1" parent="1">
          <mxGeometry x="660" y="215" width="170" height="80" as="geometry" />
        </mxCell>
        <mxCell id="XcMZtLr8KsLbTlHt70lN-17" value="" style="endArrow=classic;html=1;rounded=0;fontFamily=Times New Roman;fontSize=16;exitX=1;exitY=0.5;exitDx=0;exitDy=0;entryX=0;entryY=0.5;entryDx=0;entryDy=0;" edge="1" parent="1" source="XcMZtLr8KsLbTlHt70lN-11" target="XcMZtLr8KsLbTlHt70lN-15">
          <mxGeometry width="50" height="50" relative="1" as="geometry">
            <mxPoint x="510" y="390" as="sourcePoint" />
            <mxPoint x="560" y="340" as="targetPoint" />
          </mxGeometry>
        </mxCell>
        <mxCell id="XcMZtLr8KsLbTlHt70lN-18" value="" style="endArrow=classic;html=1;rounded=0;fontFamily=Times New Roman;fontSize=16;exitX=0.5;exitY=1;exitDx=0;exitDy=0;entryX=0.5;entryY=0;entryDx=0;entryDy=0;" edge="1" parent="1" source="XcMZtLr8KsLbTlHt70lN-15" target="XcMZtLr8KsLbTlHt70lN-20">
          <mxGeometry width="50" height="50" relative="1" as="geometry">
            <mxPoint x="510" y="390" as="sourcePoint" />
            <mxPoint x="560" y="340" as="targetPoint" />
          </mxGeometry>
        </mxCell>
        <mxCell id="XcMZtLr8KsLbTlHt70lN-19" value="" style="rounded=0;whiteSpace=wrap;html=1;fontFamily=Times New Roman;fontSize=16;" vertex="1" parent="1">
          <mxGeometry x="652.5" y="320" width="185" height="80" as="geometry" />
        </mxCell>
        <mxCell id="XcMZtLr8KsLbTlHt70lN-20" value="Mencatat detail pesanan pelanggan" style="rounded=0;whiteSpace=wrap;html=1;fontFamily=Times New Roman;fontSize=16;" vertex="1" parent="1">
          <mxGeometry x="680" y="320" width="130" height="80" as="geometry" />
        </mxCell>
        <mxCell id="XcMZtLr8KsLbTlHt70lN-21" value="Mencetak catatan pesanan pelanggan" style="shape=document;whiteSpace=wrap;html=1;boundedLbl=1;fontFamily=Times New Roman;fontSize=16;" vertex="1" parent="1">
          <mxGeometry x="672.5" y="430" width="145" height="80" as="geometry" />
        </mxCell>
        <mxCell id="XcMZtLr8KsLbTlHt70lN-22" value="" style="endArrow=classic;html=1;rounded=0;fontFamily=Times New Roman;fontSize=16;exitX=0.5;exitY=1;exitDx=0;exitDy=0;entryX=0.5;entryY=0;entryDx=0;entryDy=0;" edge="1" parent="1" source="XcMZtLr8KsLbTlHt70lN-20" target="XcMZtLr8KsLbTlHt70lN-21">
          <mxGeometry width="50" height="50" relative="1" as="geometry">
            <mxPoint x="510" y="530" as="sourcePoint" />
            <mxPoint x="560" y="480" as="targetPoint" />
          </mxGeometry>
        </mxCell>
        <mxCell id="XcMZtLr8KsLbTlHt70lN-23" value="" style="rounded=0;whiteSpace=wrap;html=1;fontFamily=Times New Roman;fontSize=16;" vertex="1" parent="1">
          <mxGeometry x="652.5" y="530" width="185" height="80" as="geometry" />
        </mxCell>
        <mxCell id="XcMZtLr8KsLbTlHt70lN-24" value="Melakukan kesepakatan pembayaran" style="rounded=0;whiteSpace=wrap;html=1;fontFamily=Times New Roman;fontSize=16;" vertex="1" parent="1">
          <mxGeometry x="680" y="530" width="130" height="80" as="geometry" />
        </mxCell>
        <mxCell id="XcMZtLr8KsLbTlHt70lN-25" value="" style="endArrow=classic;html=1;rounded=0;fontFamily=Times New Roman;fontSize=16;entryX=0.5;entryY=0;entryDx=0;entryDy=0;" edge="1" parent="1" target="XcMZtLr8KsLbTlHt70lN-24">
          <mxGeometry width="50" height="50" relative="1" as="geometry">
            <mxPoint x="745" y="500" as="sourcePoint" />
            <mxPoint x="560" y="470" as="targetPoint" />
          </mxGeometry>
        </mxCell>
        <mxCell id="XcMZtLr8KsLbTlHt70lN-26" value="Tidak" style="text;html=1;strokeColor=none;fillColor=none;align=center;verticalAlign=middle;whiteSpace=wrap;rounded=0;fontFamily=Times New Roman;fontSize=16;" vertex="1" parent="1">
          <mxGeometry x="370" y="450" width="60" height="30" as="geometry" />
        </mxCell>
        <mxCell id="XcMZtLr8KsLbTlHt70lN-29" value="" style="endArrow=classic;startArrow=classic;html=1;rounded=0;fontFamily=Times New Roman;fontSize=16;exitX=0.5;exitY=0;exitDx=0;exitDy=0;entryX=0;entryY=0.5;entryDx=0;entryDy=0;" edge="1" parent="1" source="XcMZtLr8KsLbTlHt70lN-32" target="XcMZtLr8KsLbTlHt70lN-23">
          <mxGeometry width="50" height="50" relative="1" as="geometry">
            <mxPoint x="510" y="520" as="sourcePoint" />
            <mxPoint x="560" y="470" as="targetPoint" />
            <Array as="points">
              <mxPoint x="295" y="480" />
              <mxPoint x="510" y="480" />
              <mxPoint x="510" y="570" />
            </Array>
          </mxGeometry>
        </mxCell>
        <mxCell id="XcMZtLr8KsLbTlHt70lN-31" value="" style="endArrow=classic;html=1;rounded=0;fontFamily=Times New Roman;fontSize=16;exitX=0.25;exitY=1;exitDx=0;exitDy=0;entryX=1;entryY=0.5;entryDx=0;entryDy=0;" edge="1" parent="1" source="XcMZtLr8KsLbTlHt70lN-24" target="XcMZtLr8KsLbTlHt70lN-32">
          <mxGeometry width="50" height="50" relative="1" as="geometry">
            <mxPoint x="510" y="520" as="sourcePoint" />
            <mxPoint x="520" y="640" as="targetPoint" />
            <Array as="points">
              <mxPoint x="713" y="630" />
              <mxPoint x="440" y="630" />
              <mxPoint x="440" y="570" />
            </Array>
          </mxGeometry>
        </mxCell>
        <mxCell id="XcMZtLr8KsLbTlHt70lN-32" value="Setuju" style="rhombus;whiteSpace=wrap;html=1;fontFamily=Times New Roman;fontSize=16;" vertex="1" parent="1">
          <mxGeometry x="230" y="530" width="130" height="80" as="geometry" />
        </mxCell>
        <mxCell id="XcMZtLr8KsLbTlHt70lN-33" value="Ya" style="text;html=1;strokeColor=none;fillColor=none;align=center;verticalAlign=middle;whiteSpace=wrap;rounded=0;fontFamily=Times New Roman;fontSize=16;" vertex="1" parent="1">
          <mxGeometry x="450" y="600" width="60" height="30" as="geometry" />
        </mxCell>
        <mxCell id="XcMZtLr8KsLbTlHt70lN-34" value="Bukti pembayaran" style="shape=document;whiteSpace=wrap;html=1;boundedLbl=1;fontFamily=Times New Roman;fontSize=16;" vertex="1" parent="1">
          <mxGeometry x="675" y="650" width="140" height="80" as="geometry" />
        </mxCell>
        <mxCell id="XcMZtLr8KsLbTlHt70lN-36" value="" style="rounded=0;whiteSpace=wrap;html=1;fontFamily=Times New Roman;fontSize=16;" vertex="1" parent="1">
          <mxGeometry x="202.5" y="650" width="185" height="80" as="geometry" />
        </mxCell>
        <mxCell id="XcMZtLr8KsLbTlHt70lN-38" value="Melakukan pembayaran" style="rounded=0;whiteSpace=wrap;html=1;fontFamily=Times New Roman;fontSize=16;" vertex="1" parent="1">
          <mxGeometry x="230" y="650" width="130" height="80" as="geometry" />
        </mxCell>
        <mxCell id="XcMZtLr8KsLbTlHt70lN-39" value="" style="endArrow=classic;html=1;rounded=0;fontFamily=Times New Roman;fontSize=16;exitX=0.5;exitY=1;exitDx=0;exitDy=0;entryX=0.5;entryY=0;entryDx=0;entryDy=0;" edge="1" parent="1" source="XcMZtLr8KsLbTlHt70lN-32" target="XcMZtLr8KsLbTlHt70lN-38">
          <mxGeometry width="50" height="50" relative="1" as="geometry">
            <mxPoint x="590" y="800" as="sourcePoint" />
            <mxPoint x="640" y="750" as="targetPoint" />
          </mxGeometry>
        </mxCell>
        <mxCell id="XcMZtLr8KsLbTlHt70lN-40" value="" style="endArrow=classic;html=1;rounded=0;fontFamily=Times New Roman;fontSize=16;exitX=1;exitY=0.5;exitDx=0;exitDy=0;entryX=0;entryY=0.5;entryDx=0;entryDy=0;" edge="1" parent="1" source="XcMZtLr8KsLbTlHt70lN-36" target="XcMZtLr8KsLbTlHt70lN-34">
          <mxGeometry width="50" height="50" relative="1" as="geometry">
            <mxPoint x="590" y="800" as="sourcePoint" />
            <mxPoint x="640" y="750" as="targetPoint" />
          </mxGeometry>
        </mxCell>
        <mxCell id="XcMZtLr8KsLbTlHt70lN-41" value="" style="endArrow=classic;html=1;rounded=0;fontFamily=Times New Roman;fontSize=16;exitX=0.5;exitY=1;exitDx=0;exitDy=0;entryX=0.5;entryY=0;entryDx=0;entryDy=0;" edge="1" parent="1" source="XcMZtLr8KsLbTlHt70lN-24" target="XcMZtLr8KsLbTlHt70lN-34">
          <mxGeometry width="50" height="50" relative="1" as="geometry">
            <mxPoint x="590" y="800" as="sourcePoint" />
            <mxPoint x="640" y="750" as="targetPoint" />
          </mxGeometry>
        </mxCell>
        <mxCell id="XcMZtLr8KsLbTlHt70lN-42" value="Bukti pembayaran" style="shape=document;whiteSpace=wrap;html=1;boundedLbl=1;fontFamily=Times New Roman;fontSize=16;" vertex="1" parent="1">
          <mxGeometry x="225" y="760" width="140" height="80" as="geometry" />
        </mxCell>
        <mxCell id="XcMZtLr8KsLbTlHt70lN-43" value="" style="endArrow=classic;html=1;rounded=0;fontFamily=Times New Roman;fontSize=16;entryX=0.982;entryY=0.362;entryDx=0;entryDy=0;entryPerimeter=0;" edge="1" parent="1" target="XcMZtLr8KsLbTlHt70lN-42">
          <mxGeometry width="50" height="50" relative="1" as="geometry">
            <mxPoint x="745" y="720" as="sourcePoint" />
            <mxPoint x="370" y="790" as="targetPoint" />
            <Array as="points">
              <mxPoint x="745" y="790" />
            </Array>
          </mxGeometry>
        </mxCell>
        <mxCell id="XcMZtLr8KsLbTlHt70lN-44" value="" style="rounded=0;whiteSpace=wrap;html=1;fontFamily=Times New Roman;fontSize=16;" vertex="1" parent="1">
          <mxGeometry x="652.5" y="820" width="185" height="80" as="geometry" />
        </mxCell>
        <mxCell id="XcMZtLr8KsLbTlHt70lN-45" value="Pesanan pelanggan dikirim" style="rounded=0;whiteSpace=wrap;html=1;fontFamily=Times New Roman;fontSize=16;" vertex="1" parent="1">
          <mxGeometry x="680" y="820" width="130" height="80" as="geometry" />
        </mxCell>
        <mxCell id="XcMZtLr8KsLbTlHt70lN-46" value="" style="rounded=0;whiteSpace=wrap;html=1;fontFamily=Times New Roman;fontSize=16;" vertex="1" parent="1">
          <mxGeometry x="202.5" y="860" width="185" height="80" as="geometry" />
        </mxCell>
        <mxCell id="XcMZtLr8KsLbTlHt70lN-47" value="Pesanan diterima" style="rounded=0;whiteSpace=wrap;html=1;fontFamily=Times New Roman;fontSize=16;" vertex="1" parent="1">
          <mxGeometry x="230" y="860" width="130" height="80" as="geometry" />
        </mxCell>
        <mxCell id="XcMZtLr8KsLbTlHt70lN-48" value="" style="endArrow=classic;html=1;rounded=0;fontFamily=Times New Roman;fontSize=16;entryX=1;entryY=0.5;entryDx=0;entryDy=0;exitX=0.5;exitY=1;exitDx=0;exitDy=0;" edge="1" parent="1" source="XcMZtLr8KsLbTlHt70lN-44" target="XcMZtLr8KsLbTlHt70lN-46">
          <mxGeometry width="50" height="50" relative="1" as="geometry">
            <mxPoint x="650" y="900" as="sourcePoint" />
            <mxPoint x="610" y="870" as="targetPoint" />
            <Array as="points">
              <mxPoint x="745" y="930" />
              <mxPoint x="580" y="930" />
              <mxPoint x="580" y="900" />
            </Array>
          </mxGeometry>
        </mxCell>
        <mxCell id="XcMZtLr8KsLbTlHt70lN-49" value="Selesai" style="rounded=1;whiteSpace=wrap;html=1;fontFamily=Times New Roman;fontSize=16;" vertex="1" parent="1">
          <mxGeometry x="685" y="980" width="120" height="60" as="geometry" />
        </mxCell>
        <mxCell id="XcMZtLr8KsLbTlHt70lN-50" value="" style="endArrow=classic;html=1;rounded=0;fontFamily=Times New Roman;fontSize=16;entryX=0.5;entryY=0;entryDx=0;entryDy=0;" edge="1" parent="1" target="XcMZtLr8KsLbTlHt70lN-49">
          <mxGeometry width="50" height="50" relative="1" as="geometry">
            <mxPoint x="780" y="900" as="sourcePoint" />
            <mxPoint x="650" y="930" as="targetPoint" />
            <Array as="points">
              <mxPoint x="780" y="950" />
              <mxPoint x="745" y="950" />
            </Array>
          </mxGeometry>
        </mxCell>
        <mxCell id="XcMZtLr8KsLbTlHt70lN-51" value="" style="endArrow=classic;html=1;rounded=0;fontFamily=Times New Roman;fontSize=16;exitX=0.5;exitY=1;exitDx=0;exitDy=0;entryX=0;entryY=0.5;entryDx=0;entryDy=0;" edge="1" parent="1" source="XcMZtLr8KsLbTlHt70lN-47" target="XcMZtLr8KsLbTlHt70lN-49">
          <mxGeometry width="50" height="50" relative="1" as="geometry">
            <mxPoint x="550" y="990" as="sourcePoint" />
            <mxPoint x="610" y="930" as="targetPoint" />
            <Array as="points">
              <mxPoint x="295" y="1010" />
            </Array>
          </mxGeometry>
        </mxCell>
      </root>
    </mxGraphModel>
  </diagram>
</mxfile>
